<svg width="161" height="20" viewBox="0 0 161 20" fill="none" xmlns="http://www.w3.org/2000/svg">
<path d="M2.70703 8.64258L9.03516 11.0059V13.4863L0.705078 9.88281V8.18359L2.70703 8.64258ZM9.03516 6.71875L2.70703 9.12109L0.705078 9.55078V7.8418L9.03516 4.24805V6.71875ZM22.2871 0.78125V15H19.6113V0.78125H22.2871ZM26.7012 0.78125V2.90039H15.2461V0.78125H26.7012ZM30.8223 0V15H28.2344V0H30.8223ZM30.4121 9.33594H29.6504C29.6504 8.60026 29.748 7.92318 29.9434 7.30469C30.1387 6.6862 30.4154 6.14909 30.7734 5.69336C31.1315 5.23112 31.5579 4.87305 32.0527 4.61914C32.554 4.36523 33.1074 4.23828 33.7129 4.23828C34.2337 4.23828 34.7057 4.31315 35.1289 4.46289C35.5586 4.60612 35.9264 4.83724 36.2324 5.15625C36.5384 5.47526 36.7728 5.89193 36.9355 6.40625C37.1048 6.91406 37.1895 7.53255 37.1895 8.26172V15H34.5918V8.24219C34.5918 7.75391 34.5202 7.36979 34.377 7.08984C34.2337 6.80339 34.0286 6.59831 33.7617 6.47461C33.5013 6.35091 33.179 6.28906 32.7949 6.28906C32.3783 6.28906 32.0202 6.37044 31.7207 6.5332C31.4212 6.68945 31.1738 6.90755 30.9785 7.1875C30.7897 7.46745 30.6465 7.78971 30.5488 8.1543C30.4577 8.51888 30.4121 8.91276 30.4121 9.33594ZM42.1992 4.43359V15H39.6113V4.43359H42.1992ZM39.4355 1.66992C39.4355 1.28581 39.5658 0.966797 39.8262 0.712891C40.0931 0.458984 40.4512 0.332031 40.9004 0.332031C41.3496 0.332031 41.7044 0.458984 41.9648 0.712891C42.2318 0.966797 42.3652 1.28581 42.3652 1.66992C42.3652 2.04753 42.2318 2.36328 41.9648 2.61719C41.7044 2.87109 41.3496 2.99805 40.9004 2.99805C40.4512 2.99805 40.0931 2.87109 39.8262 2.61719C39.5658 2.36328 39.4355 2.04753 39.4355 1.66992ZM49.4062 15.1953C48.6055 15.1953 47.8861 15.0651 47.248 14.8047C46.61 14.5443 46.0664 14.1829 45.6172 13.7207C45.1745 13.252 44.8327 12.7083 44.5918 12.0898C44.3574 11.4648 44.2402 10.7943 44.2402 10.0781V9.6875C44.2402 8.8737 44.3574 8.13477 44.5918 7.4707C44.8262 6.80013 45.1582 6.22396 45.5879 5.74219C46.0176 5.26042 46.5319 4.88932 47.1309 4.62891C47.7298 4.36849 48.3906 4.23828 49.1133 4.23828C49.862 4.23828 50.5228 4.36523 51.0957 4.61914C51.6686 4.86654 52.1471 5.2181 52.5312 5.67383C52.9154 6.12956 53.2051 6.67643 53.4004 7.31445C53.5957 7.94596 53.6934 8.64583 53.6934 9.41406V10.498H45.4121V8.7207H51.1543V8.52539C51.1413 8.11523 51.0632 7.74089 50.9199 7.40234C50.7767 7.05729 50.5553 6.78385 50.2559 6.58203C49.9564 6.3737 49.569 6.26953 49.0938 6.26953C48.7096 6.26953 48.3743 6.35417 48.0879 6.52344C47.8079 6.6862 47.5736 6.92057 47.3848 7.22656C47.2025 7.52604 47.0658 7.88411 46.9746 8.30078C46.8835 8.71745 46.8379 9.17969 46.8379 9.6875V10.0781C46.8379 10.5208 46.8965 10.931 47.0137 11.3086C47.1374 11.6862 47.3164 12.015 47.5508 12.2949C47.7917 12.5684 48.0781 12.7832 48.4102 12.9395C48.7487 13.0892 49.1328 13.1641 49.5625 13.1641C50.1029 13.1641 50.5911 13.0599 51.0273 12.8516C51.4701 12.6367 51.8542 12.321 52.1797 11.9043L53.4785 13.252C53.2572 13.5775 52.9577 13.89 52.5801 14.1895C52.209 14.4889 51.7598 14.7331 51.2324 14.9219C50.7051 15.1042 50.0964 15.1953 49.4062 15.1953ZM58 6.5918V15H55.4219V4.43359H57.8633L58 6.5918ZM61.2129 4.36523L61.1738 6.76758C61.0306 6.74154 60.8678 6.72201 60.6855 6.70898C60.5098 6.69596 60.3438 6.68945 60.1875 6.68945C59.7904 6.68945 59.4421 6.74479 59.1426 6.85547C58.8431 6.95964 58.5924 7.11263 58.3906 7.31445C58.1953 7.51628 58.0456 7.76367 57.9414 8.05664C57.8372 8.3431 57.7786 8.66862 57.7656 9.0332L57.209 8.96484C57.209 8.29427 57.2773 7.67253 57.4141 7.09961C57.5508 6.52669 57.7493 6.02539 58.0098 5.5957C58.2702 5.16602 58.5957 4.83398 58.9863 4.59961C59.3835 4.35872 59.8392 4.23828 60.3535 4.23828C60.4967 4.23828 60.6497 4.2513 60.8125 4.27734C60.9818 4.29688 61.1152 4.32617 61.2129 4.36523ZM65.207 6.5918V15H62.6289V4.43359H65.0703L65.207 6.5918ZM68.4199 4.36523L68.3809 6.76758C68.2376 6.74154 68.0749 6.72201 67.8926 6.70898C67.7168 6.69596 67.5508 6.68945 67.3945 6.68945C66.9974 6.68945 66.6491 6.74479 66.3496 6.85547C66.0501 6.95964 65.7995 7.11263 65.5977 7.31445C65.4023 7.51628 65.2526 7.76367 65.1484 8.05664C65.0443 8.3431 64.9857 8.66862 64.9727 9.0332L64.416 8.96484C64.416 8.29427 64.4844 7.67253 64.6211 7.09961C64.7578 6.52669 64.9564 6.02539 65.2168 5.5957C65.4772 5.16602 65.8027 4.83398 66.1934 4.59961C66.5905 4.35872 67.0462 4.23828 67.5605 4.23828C67.7038 4.23828 67.8568 4.2513 68.0195 4.27734C68.1888 4.29688 68.3223 4.32617 68.4199 4.36523ZM73.1074 13.8281L75.9395 4.43359H78.7031L74.4648 16.6016C74.3672 16.862 74.2402 17.1452 74.084 17.4512C73.9342 17.7572 73.7324 18.0469 73.4785 18.3203C73.2246 18.6003 72.9056 18.8281 72.5215 19.0039C72.1439 19.1797 71.6849 19.2676 71.1445 19.2676C70.9102 19.2676 70.7018 19.2513 70.5195 19.2188C70.3372 19.1862 70.1452 19.1439 69.9434 19.0918V17.1582C70.0085 17.1647 70.0833 17.168 70.168 17.168C70.2591 17.1745 70.3372 17.1777 70.4023 17.1777C70.7799 17.1777 71.0924 17.1322 71.3398 17.041C71.5872 16.9564 71.7858 16.8164 71.9355 16.6211C72.0918 16.4323 72.222 16.1849 72.3262 15.8789L73.1074 13.8281ZM71.7109 4.43359L74.1035 12.2168L74.5234 14.9414L72.7461 15.2637L68.9277 4.43359H71.7109Z" fill="white"/>
<path d="M93.4492 10.3223H96.1348C96.0632 11.2728 95.7995 12.1159 95.3438 12.8516C94.888 13.5807 94.2533 14.1536 93.4395 14.5703C92.6257 14.987 91.6393 15.1953 90.4805 15.1953C89.5885 15.1953 88.7845 15.0391 88.0684 14.7266C87.3587 14.4076 86.75 13.9551 86.2422 13.3691C85.7409 12.7767 85.3568 12.0671 85.0898 11.2402C84.8229 10.4069 84.6895 9.47266 84.6895 8.4375V7.35352C84.6895 6.31836 84.8262 5.38411 85.0996 4.55078C85.373 3.71745 85.7637 3.00781 86.2715 2.42188C86.7858 1.82943 87.401 1.3737 88.1172 1.05469C88.8398 0.735677 89.6471 0.576172 90.5391 0.576172C91.6979 0.576172 92.6777 0.791016 93.4785 1.2207C94.2793 1.64388 94.901 2.22656 95.3438 2.96875C95.7865 3.71094 96.0534 4.5638 96.1445 5.52734H93.459C93.4069 4.92839 93.2767 4.42057 93.0684 4.00391C92.8665 3.58724 92.5605 3.27148 92.1504 3.05664C91.7467 2.83529 91.2096 2.72461 90.5391 2.72461C90.0182 2.72461 89.5592 2.82227 89.1621 3.01758C88.7715 3.21289 88.446 3.50586 88.1855 3.89648C87.9251 4.2806 87.7298 4.76237 87.5996 5.3418C87.4694 5.91471 87.4043 6.57878 87.4043 7.33398V8.4375C87.4043 9.16016 87.4629 9.80794 87.5801 10.3809C87.6973 10.9538 87.8796 11.4388 88.127 11.8359C88.3743 12.2331 88.6934 12.5358 89.084 12.7441C89.4746 12.9525 89.9401 13.0566 90.4805 13.0566C91.138 13.0566 91.6719 12.9525 92.082 12.7441C92.4987 12.5358 92.8145 12.2298 93.0293 11.8262C93.2507 11.4225 93.3906 10.9212 93.4492 10.3223ZM103.84 12.7539V7.88086C103.84 7.52279 103.778 7.21354 103.654 6.95312C103.531 6.69271 103.342 6.49089 103.088 6.34766C102.834 6.20443 102.512 6.13281 102.121 6.13281C101.776 6.13281 101.473 6.19141 101.213 6.30859C100.959 6.42578 100.764 6.5918 100.627 6.80664C100.49 7.01497 100.422 7.25586 100.422 7.5293H97.834C97.834 7.0931 97.9382 6.67969 98.1465 6.28906C98.3548 5.89193 98.651 5.54036 99.0352 5.23438C99.4258 4.92188 99.8913 4.67773 100.432 4.50195C100.979 4.32617 101.59 4.23828 102.268 4.23828C103.068 4.23828 103.781 4.375 104.406 4.64844C105.038 4.91536 105.533 5.31901 105.891 5.85938C106.255 6.39974 106.438 7.08008 106.438 7.90039V12.5098C106.438 13.0371 106.47 13.4896 106.535 13.8672C106.607 14.2383 106.711 14.5605 106.848 14.834V15H104.221C104.097 14.7331 104.003 14.3945 103.938 13.9844C103.872 13.5677 103.84 13.1576 103.84 12.7539ZM104.201 8.56445L104.221 10.0977H102.59C102.186 10.0977 101.831 10.14 101.525 10.2246C101.219 10.3027 100.969 10.4199 100.773 10.5762C100.578 10.7259 100.432 10.9082 100.334 11.123C100.236 11.3314 100.188 11.569 100.188 11.8359C100.188 12.0964 100.246 12.3307 100.363 12.5391C100.487 12.7474 100.663 12.9134 100.891 13.0371C101.125 13.1543 101.398 13.2129 101.711 13.2129C102.167 13.2129 102.564 13.1217 102.902 12.9395C103.241 12.7507 103.505 12.5228 103.693 12.2559C103.882 11.9889 103.983 11.735 103.996 11.4941L104.738 12.6074C104.647 12.8743 104.51 13.1576 104.328 13.457C104.146 13.7565 103.911 14.0365 103.625 14.2969C103.339 14.5573 102.993 14.7721 102.59 14.9414C102.186 15.1107 101.717 15.1953 101.184 15.1953C100.5 15.1953 99.888 15.0586 99.3477 14.7852C98.8073 14.5117 98.3809 14.1374 98.0684 13.6621C97.7559 13.1868 97.5996 12.6465 97.5996 12.041C97.5996 11.4811 97.7038 10.9863 97.9121 10.5566C98.1204 10.127 98.4297 9.76562 98.8398 9.47266C99.25 9.17318 99.7578 8.94857 100.363 8.79883C100.975 8.64258 101.675 8.56445 102.463 8.56445H104.201ZM114.572 12.1094C114.572 11.888 114.514 11.6895 114.396 11.5137C114.279 11.3379 114.058 11.1784 113.732 11.0352C113.413 10.8854 112.945 10.7454 112.326 10.6152C111.779 10.498 111.275 10.3516 110.812 10.1758C110.35 10 109.953 9.78841 109.621 9.54102C109.289 9.28711 109.029 8.99089 108.84 8.65234C108.658 8.30729 108.566 7.91016 108.566 7.46094C108.566 7.02474 108.661 6.61458 108.85 6.23047C109.038 5.83984 109.312 5.49805 109.67 5.20508C110.028 4.9056 110.464 4.67122 110.979 4.50195C111.493 4.32617 112.072 4.23828 112.717 4.23828C113.615 4.23828 114.387 4.38477 115.031 4.67773C115.682 4.9707 116.18 5.37435 116.525 5.88867C116.87 6.39648 117.043 6.9694 117.043 7.60742H114.465C114.465 7.32747 114.4 7.07357 114.27 6.8457C114.146 6.61784 113.954 6.43555 113.693 6.29883C113.433 6.1556 113.104 6.08398 112.707 6.08398C112.349 6.08398 112.046 6.14258 111.799 6.25977C111.558 6.37695 111.376 6.52995 111.252 6.71875C111.128 6.90755 111.066 7.11589 111.066 7.34375C111.066 7.51302 111.099 7.66602 111.164 7.80273C111.236 7.93294 111.35 8.05339 111.506 8.16406C111.662 8.27474 111.874 8.37565 112.141 8.4668C112.414 8.55794 112.749 8.64583 113.146 8.73047C113.934 8.88672 114.621 9.09505 115.207 9.35547C115.799 9.60938 116.262 9.94792 116.594 10.3711C116.926 10.7943 117.092 11.3346 117.092 11.9922C117.092 12.4609 116.991 12.8906 116.789 13.2812C116.587 13.6654 116.294 14.0007 115.91 14.2871C115.526 14.5736 115.067 14.7982 114.533 14.9609C113.999 15.1172 113.397 15.1953 112.727 15.1953C111.757 15.1953 110.936 15.0228 110.266 14.6777C109.595 14.3262 109.087 13.8835 108.742 13.3496C108.397 12.8092 108.225 12.2493 108.225 11.6699H110.695C110.715 12.0801 110.826 12.4089 111.027 12.6562C111.229 12.9036 111.483 13.0827 111.789 13.1934C112.102 13.2975 112.43 13.3496 112.775 13.3496C113.166 13.3496 113.495 13.2975 113.762 13.1934C114.029 13.0827 114.23 12.9362 114.367 12.7539C114.504 12.5651 114.572 12.3503 114.572 12.1094ZM124.055 4.43359V6.28906H118V4.43359H124.055ZM119.621 1.83594H122.209V11.9531C122.209 12.2656 122.251 12.5065 122.336 12.6758C122.421 12.8451 122.548 12.959 122.717 13.0176C122.886 13.0762 123.088 13.1055 123.322 13.1055C123.492 13.1055 123.648 13.0957 123.791 13.0762C123.934 13.0566 124.055 13.0371 124.152 13.0176L124.162 14.9512C123.947 15.0228 123.703 15.0814 123.43 15.127C123.163 15.1725 122.86 15.1953 122.521 15.1953C121.942 15.1953 121.434 15.0977 120.998 14.9023C120.562 14.7005 120.223 14.3783 119.982 13.9355C119.742 13.4863 119.621 12.8939 119.621 12.1582V1.83594ZM128.352 6.5918V15H125.773V4.43359H128.215L128.352 6.5918ZM131.564 4.36523L131.525 6.76758C131.382 6.74154 131.219 6.72201 131.037 6.70898C130.861 6.69596 130.695 6.68945 130.539 6.68945C130.142 6.68945 129.794 6.74479 129.494 6.85547C129.195 6.95964 128.944 7.11263 128.742 7.31445C128.547 7.51628 128.397 7.76367 128.293 8.05664C128.189 8.3431 128.13 8.66862 128.117 9.0332L127.561 8.96484C127.561 8.29427 127.629 7.67253 127.766 7.09961C127.902 6.52669 128.101 6.02539 128.361 5.5957C128.622 5.16602 128.947 4.83398 129.338 4.59961C129.735 4.35872 130.191 4.23828 130.705 4.23828C130.848 4.23828 131.001 4.2513 131.164 4.27734C131.333 4.29688 131.467 4.32617 131.564 4.36523ZM132.248 9.82422V9.61914C132.248 8.8444 132.359 8.13151 132.58 7.48047C132.801 6.82292 133.124 6.25326 133.547 5.77148C133.97 5.28971 134.488 4.91536 135.1 4.64844C135.712 4.375 136.408 4.23828 137.189 4.23828C137.984 4.23828 138.687 4.375 139.299 4.64844C139.917 4.91536 140.438 5.28971 140.861 5.77148C141.285 6.25326 141.607 6.82292 141.828 7.48047C142.049 8.13151 142.16 8.8444 142.16 9.61914V9.82422C142.16 10.5924 142.049 11.3053 141.828 11.9629C141.607 12.6139 141.285 13.1836 140.861 13.6719C140.438 14.1536 139.921 14.528 139.309 14.7949C138.697 15.0618 137.997 15.1953 137.209 15.1953C136.428 15.1953 135.728 15.0618 135.109 14.7949C134.491 14.528 133.97 14.1536 133.547 13.6719C133.124 13.1836 132.801 12.6139 132.58 11.9629C132.359 11.3053 132.248 10.5924 132.248 9.82422ZM134.826 9.61914V9.82422C134.826 10.2865 134.872 10.7194 134.963 11.123C135.054 11.5267 135.194 11.8815 135.383 12.1875C135.572 12.4935 135.816 12.7344 136.115 12.9102C136.421 13.0794 136.786 13.1641 137.209 13.1641C137.626 13.1641 137.984 13.0794 138.283 12.9102C138.583 12.7344 138.827 12.4935 139.016 12.1875C139.211 11.8815 139.354 11.5267 139.445 11.123C139.536 10.7194 139.582 10.2865 139.582 9.82422V9.61914C139.582 9.16341 139.536 8.73698 139.445 8.33984C139.354 7.9362 139.211 7.58138 139.016 7.27539C138.827 6.96289 138.579 6.71875 138.273 6.54297C137.974 6.36068 137.613 6.26953 137.189 6.26953C136.773 6.26953 136.415 6.36068 136.115 6.54297C135.816 6.71875 135.572 6.96289 135.383 7.27539C135.194 7.58138 135.054 7.9362 134.963 8.33984C134.872 8.73698 134.826 9.16341 134.826 9.61914ZM150.148 0.78125L144.777 16.2207H142.814L148.186 0.78125H150.148ZM158.107 9.0332L151.682 6.69922V4.23828L160.158 7.8418V9.56055L158.107 9.0332ZM151.682 11.0352L158.117 8.63281L160.158 8.17383V9.88281L151.682 13.4863V11.0352Z" fill="#8B0FB4"/>
</svg>
